solid 182mm tower
facet normal 0.0 0.0 -1.0
outer loop
vertex 5.0 10.0 0.0
vertex 0.0 0.0 0.0
vertex 0.0 10.0 0.0
endloop
endfacet
facet normal 0.0 0.0 -1.0
outer loop
vertex 0.0 0.0 0.0
vertex 5.0 10.0 0.0
vertex 5.0 0.0 0.0
endloop
endfacet
facet normal -0.0 -0.0 1.0
outer loop
vertex 0.0 0.0 1.5
vertex 2.0 2.0 1.5
vertex 0.0 10.0 1.5
endloop
endfacet
facet normal -0.0 -0.0 1.0
outer loop
vertex 2.0 2.0 1.5
vertex 0.0 0.0 1.5
vertex 5.0 0.0 1.5
endloop
endfacet
facet normal -0.0 -0.0 1.0
outer loop
vertex 2.0 2.0 1.5
vertex 5.0 0.0 1.5
vertex 3.0 2.0 1.5
endloop
endfacet
facet normal -0.0 -0.0 1.0
outer loop
vertex 3.0 2.0 1.5
vertex 5.0 0.0 1.5
vertex 3.0 8.0 1.5
endloop
endfacet
facet normal -0.0 -0.0 1.0
outer loop
vertex 0.0 10.0 1.5
vertex 2.0 8.0 1.5
vertex 5.0 10.0 1.5
endloop
endfacet
facet normal -0.0 -0.0 1.0
outer loop
vertex 2.0 8.0 1.5
vertex 0.0 10.0 1.5
vertex 2.0 2.0 1.5
endloop
endfacet
facet normal -0.0 -0.0 1.0
outer loop
vertex 5.0 10.0 1.5
vertex 2.0 8.0 1.5
vertex 3.0 8.0 1.5
endloop
endfacet
facet normal -0.0 -0.0 1.0
outer loop
vertex 5.0 10.0 1.5
vertex 3.0 8.0 1.5
vertex 5.0 0.0 1.5
endloop
endfacet
facet normal 1.0 0.0 0.0
outer loop
vertex 5.0 10.0 0.0
vertex 5.0 0.0 1.5
vertex 5.0 0.0 0.0
endloop
endfacet
facet normal 1.0 0.0 0.0
outer loop
vertex 5.0 0.0 1.5
vertex 5.0 10.0 0.0
vertex 5.0 10.0 1.5
endloop
endfacet
facet normal -0.0 -1.0 -0.0
outer loop
vertex 5.0 0.0 1.5
vertex 0.0 0.0 0.0
vertex 5.0 0.0 0.0
endloop
endfacet
facet normal -0.0 -1.0 -0.0
outer loop
vertex 0.0 0.0 0.0
vertex 5.0 0.0 1.5
vertex 0.0 0.0 1.5
endloop
endfacet
facet normal -1.0 0.0 0.0
outer loop
vertex 0.0 10.0 1.5
vertex 0.0 0.0 0.0
vertex 0.0 0.0 1.5
endloop
endfacet
facet normal -1.0 0.0 0.0
outer loop
vertex 0.0 0.0 0.0
vertex 0.0 10.0 1.5
vertex 0.0 10.0 0.0
endloop
endfacet
facet normal -0.0 1.0 0.0
outer loop
vertex 0.0 10.0 1.5
vertex 5.0 10.0 0.0
vertex 0.0 10.0 0.0
endloop
endfacet
facet normal -0.0 1.0 0.0
outer loop
vertex 5.0 10.0 0.0
vertex 0.0 10.0 1.5
vertex 5.0 10.0 1.5
endloop
endfacet
facet normal 0.0 0.0 1.0
outer loop
vertex 3.0 2.0 181.5
vertex 2.0 8.0 181.5
vertex 2.0 2.0 181.5
endloop
endfacet
facet normal 0.0 0.0 1.0
outer loop
vertex 2.0 8.0 181.5
vertex 3.0 2.0 181.5
vertex 3.0 8.0 181.5
endloop
endfacet
facet normal 0.0 -1.0 0.0
outer loop
vertex 3.0 2.0 181.5
vertex 2.0 2.0 1.5
vertex 3.0 2.0 1.5
endloop
endfacet
facet normal 0.0 -1.0 0.0
outer loop
vertex 2.0 2.0 1.5
vertex 3.0 2.0 181.5
vertex 2.0 2.0 181.5
endloop
endfacet
facet normal 1.0 -0.0 0.0
outer loop
vertex 3.0 8.0 1.5
vertex 3.0 2.0 181.5
vertex 3.0 2.0 1.5
endloop
endfacet
facet normal 1.0 -0.0 0.0
outer loop
vertex 3.0 2.0 181.5
vertex 3.0 8.0 1.5
vertex 3.0 8.0 181.5
endloop
endfacet
facet normal 0.0 1.0 0.0
outer loop
vertex 2.0 8.0 181.5
vertex 3.0 8.0 1.5
vertex 2.0 8.0 1.5
endloop
endfacet
facet normal 0.0 1.0 0.0
outer loop
vertex 3.0 8.0 1.5
vertex 2.0 8.0 181.5
vertex 3.0 8.0 181.5
endloop
endfacet
facet normal -1.0 -0.0 -0.0
outer loop
vertex 2.0 8.0 181.5
vertex 2.0 2.0 1.5
vertex 2.0 2.0 181.5
endloop
endfacet
facet normal -1.0 -0.0 -0.0
outer loop
vertex 2.0 2.0 1.5
vertex 2.0 8.0 181.5
vertex 2.0 8.0 1.5
endloop
endfacet
endsolid 182mm tower
